<?xml version="1.0" encoding="UTF-8"?>
<svg width="499px" height="61px" viewBox="0 0 499 61" version="1.1" xmlns="http://www.w3.org/2000/svg" xmlns:xlink="http://www.w3.org/1999/xlink">
    <!-- Generator: Sketch 46.2 (44496) - http://www.bohemiancoding.com/sketch -->
    <title>logo-tutsplus</title>
    <desc>Created with Sketch.</desc>
    <defs></defs>
    <g id="Page-1" stroke="none" stroke-width="1" fill="none" fill-rule="evenodd">
        <g id="logo-tutsplus" transform="translate(-2.000000, -1.000000)" fill-rule="nonzero">
            <path d="M42.876,7.498 C41.27,6.606 36.664,7.156 31.132,8.87 C21.45,15.488 13.278,25.236 12.708,40.894 C12.604,41.268 11.65,40.842 11.46,40.726 C8.846,35.716 7.81,30.438 9.994,22.826 C10.4,22.15 9.07,21.316 8.83,21.554 C8.352,22.034 6.354,24.162 5.028,26.462 C-1.548,37.87 2.752,52.488 14.258,58.884 C25.76,65.292 40.286,61.16 46.69,49.652 C54.1,36.372 47.22,9.924 42.876,7.498" id="Fill-1" fill="#7AAC41"></path>
            <path d="M84.052,13.87 C70.412,13.87 60.512,24.01 60.512,37.98 C60.512,52.066 70.386,61.902 84.526,61.902 C91.668,61.902 97.322,59.668 101.82,55.072 C103.162,53.622 103.308,52.224 103.308,51.69 C103.308,49.412 101.614,47.758 99.28,47.758 C98.104,47.758 97.12,48.202 95.992,49.244 C93.446,51.618 90.092,54.042 84.526,54.042 C76.786,54.042 70.492,48.23 70.096,40.768 L100.9,40.768 C104.248,40.768 105.876,39.202 105.876,35.982 C105.876,35.034 105.876,34.35 105.686,33 C104.026,21.022 95.94,13.87 84.052,13.87 L84.052,13.87 Z M84.052,21.35 C91.448,21.35 96.192,26.064 96.486,33.67 L70.106,33.67 C70.798,26.63 76.75,21.35 84.052,21.35 L84.052,21.35 Z" id="Fill-2" fill="#131412"></path>
            <path d="M135.292,13.87 C129.096,13.87 122.962,17.434 120.566,22.382 L120.566,19.324 C120.566,14.588 116.894,14.348 116.158,14.348 C113.984,14.348 111.658,15.654 111.658,19.324 L111.658,56.258 C111.658,61.176 115.566,61.426 116.35,61.426 C117.132,61.426 121.042,61.176 121.042,56.258 L121.042,36.458 C121.042,27.844 125.924,21.826 132.912,21.826 C139.682,21.826 142.974,26.27 142.974,35.41 L142.974,56.258 C142.974,61.176 146.884,61.426 147.668,61.426 C148.45,61.426 152.358,61.176 152.358,56.258 L152.358,32.46 C152.358,23.472 147.874,13.87 135.292,13.87" id="Fill-3" fill="#131412"></path>
            <path d="M194.816,14.348 C192.648,14.348 191.074,15.612 190.138,18.1 L177.3,50.386 L164.56,18.1 C163.562,15.574 162.002,14.348 159.786,14.348 C157.2,14.348 155.094,16.366 155.094,18.848 C155.094,19.462 155.164,20.258 155.682,21.504 L170.436,56.342 C172.196,60.544 175.088,61.426 177.204,61.426 C179.32,61.426 182.214,60.544 183.976,56.342 L198.826,21.31 C199.334,20.082 199.412,19.18 199.412,18.752 C199.412,16.242 197.434,14.348 194.816,14.348" id="Fill-4" fill="#131412"></path>
            <path d="M222.102,13.87 C216.1,13.87 210.51,15.542 206.364,18.574 C204.958,19.544 204.274,20.754 204.274,22.276 C204.274,24.372 205.872,26.014 207.92,26.014 C208.804,26.014 209.794,25.662 210.704,25.024 C214.268,22.648 217.618,21.54 221.244,21.54 C228.182,21.54 232.164,25.07 232.164,31.222 L232.164,32.242 C216.59,32.26 200.75,34.14 200.75,47.69 C200.75,57.44 209.084,61.806 217.342,61.806 C223.92,61.806 229.172,59.2 232.542,54.266 L232.542,56.638 C232.542,60.172 234.916,61.426 236.95,61.426 C237.38,61.426 241.166,61.292 241.166,56.638 L241.166,31.794 C241.166,20.57 234.036,13.87 222.102,13.87 L222.102,13.87 Z M230.19,39.152 L232.164,39.152 L232.164,41.312 C232.164,49.22 227.13,54.328 219.34,54.328 C217.226,54.328 210.326,53.836 210.326,47.498 C210.326,40.016 221.662,39.152 230.19,39.152 L230.19,39.152 Z" id="Fill-5" fill="#131412"></path>
            <path d="M265.602,22.874 C269.706,22.874 269.914,19.678 269.914,19.038 C269.914,17.138 268.78,15.108 265.602,15.108 L257.158,15.108 L257.158,6.568 C257.158,2.754 254.684,1.4 252.562,1.4 C251.78,1.4 247.872,1.65 247.872,6.568 L247.872,47.12 C247.872,56.48 252.488,61.426 261.224,61.426 C263.484,61.426 265.686,61.026 267.126,60.354 C268.778,59.53 269.724,58.176 269.724,56.638 C269.724,54.47 268.152,52.898 265.982,52.898 C265.564,52.898 264.968,53.002 264.312,53.19 C263.508,53.392 262.964,53.47 262.368,53.47 C258.814,53.47 257.158,51.15 257.158,46.168 L257.158,22.874 L265.602,22.874" id="Fill-6" fill="#131412"></path>
            <path d="M296.632,13.87 C282.44,13.87 272.142,23.93 272.142,37.79 C272.142,44.536 274.636,50.686 279.164,55.106 C283.658,59.488 289.86,61.902 296.632,61.902 C310.648,61.902 321.218,51.536 321.218,37.79 C321.218,23.93 310.876,13.87 296.632,13.87 L296.632,13.87 Z M296.632,53.946 C286.898,53.946 281.81,45.818 281.81,37.79 C281.81,26.756 289.492,21.732 296.632,21.732 C303.77,21.732 311.454,26.756 311.454,37.79 C311.454,48.89 303.77,53.946 296.632,53.946 L296.632,53.946 Z" id="Fill-7" fill="#131412"></path>
            <path d="M350.392,56.276 C345.928,56.912 343.41,56.74 342.21,54.984 C341.352,53.722 340.916,51.638 340.916,48.792 L340.916,18.662 L349.606,18.662 C350.38,18.662 351.006,18.034 351.006,17.262 L351.006,15.046 C351.006,14.272 350.38,13.646 349.606,13.646 L340.916,13.646 L340.916,3.07 C340.916,2.296 340.29,1.67 339.516,1.67 L337.26,1.67 C336.486,1.67 335.86,2.296 335.86,3.07 L335.86,13.646 L329.056,13.646 C328.284,13.646 327.656,14.272 327.656,15.046 L327.656,17.262 C327.656,18.034 328.284,18.662 329.056,18.662 L335.86,18.662 L335.86,49.088 C335.89,53.304 336.684,56.354 338.288,58.416 C339.954,60.56 342.658,61.646 346.324,61.646 C348.698,61.646 350.372,61.458 351.438,61.068 C352.076,60.836 352.456,60.18 352.338,59.51 L351.968,57.418 C351.838,56.674 351.13,56.178 350.392,56.276" id="Fill-8" fill="#7AAC41"></path>
            <path d="M389.764,13.646 L387.508,13.646 C386.734,13.646 386.108,14.272 386.108,15.046 L386.108,46.13 C385.446,49.596 383.976,52.144 381.62,53.918 C379.228,55.718 376.036,56.63 372.128,56.63 C368.53,56.63 365.898,55.604 364.084,53.488 C362.236,51.336 361.274,48.044 361.222,43.716 L361.222,15.046 C361.222,14.272 360.596,13.646 359.822,13.646 L357.608,13.646 C356.834,13.646 356.208,14.272 356.208,15.046 L356.208,43.648 C356.266,49.376 357.628,53.838 360.254,56.91 C362.942,60.052 366.962,61.646 372.21,61.646 C376.294,61.646 379.742,60.86 382.458,59.308 C383.836,58.522 385.054,57.588 386.108,56.512 L386.108,59.426 C386.108,60.198 386.734,60.826 387.508,60.826 L389.764,60.826 C390.538,60.826 391.164,60.198 391.164,59.426 L391.164,15.046 C391.164,14.272 390.538,13.646 389.764,13.646" id="Fill-9" fill="#7AAC41"></path>
            <path d="M418.75,56.276 C414.282,56.914 411.764,56.74 410.566,54.984 C409.71,53.724 409.274,51.64 409.274,48.792 L409.274,18.662 L417.962,18.662 C418.736,18.662 419.364,18.034 419.364,17.262 L419.364,15.046 C419.364,14.272 418.736,13.646 417.962,13.646 L409.274,13.646 L409.274,3.07 C409.274,2.296 408.646,1.67 407.872,1.67 L405.618,1.67 C404.844,1.67 404.216,2.296 404.216,3.07 L404.216,13.646 L397.414,13.646 C396.64,13.646 396.014,14.272 396.014,15.046 L396.014,17.262 C396.014,18.034 396.64,18.662 397.414,18.662 L404.216,18.662 L404.216,49.088 C404.248,53.304 405.042,56.354 406.644,58.416 C408.31,60.56 411.016,61.646 414.682,61.646 C417.054,61.646 418.728,61.458 419.794,61.068 C420.434,60.836 420.812,60.18 420.696,59.51 L420.326,57.418 C420.196,56.674 419.492,56.178 418.75,56.276" id="Fill-10" fill="#7AAC41"></path>
            <path d="M457.138,42.108 C456.054,40.326 454.316,38.782 451.974,37.52 C449.742,36.318 446.7,35.268 442.932,34.396 C439.382,33.574 436.666,32.718 434.852,31.852 C433.152,31.036 431.932,30.146 431.224,29.2 C430.568,28.318 430.234,27.02 430.234,25.342 C430.234,23.246 431.162,21.532 433.074,20.106 C435.086,18.604 437.91,17.842 441.466,17.842 C445.172,17.842 448.19,18.746 450.44,20.532 C452.624,22.264 453.684,24.346 453.684,26.9 C453.684,27.674 454.31,28.3 455.084,28.3 L457.338,28.3 C458.112,28.3 458.738,27.674 458.738,26.9 C458.738,22.584 457.096,19.104 453.858,16.552 C450.718,14.08 446.55,12.826 441.466,12.826 C436.768,12.826 432.872,13.986 429.888,16.274 C426.792,18.646 425.218,21.724 425.218,25.424 C425.218,29.064 426.474,31.982 428.948,34.096 C431.31,36.114 435.284,37.696 441.096,38.934 C449.62,40.736 453.766,43.884 453.766,48.556 C453.766,50.732 452.734,52.56 450.614,54.14 C448.4,55.792 445.434,56.63 441.796,56.63 C437.784,56.63 434.592,55.838 432.31,54.272 C430.132,52.776 428.982,50.74 428.794,48.048 C428.742,47.314 428.13,46.746 427.396,46.746 L425.184,46.746 C424.41,46.746 423.784,47.372 423.784,48.146 C423.784,52.152 425.514,55.464 428.922,57.986 C432.202,60.414 436.534,61.646 441.796,61.646 C446.728,61.646 450.802,60.476 453.906,58.17 C457.14,55.768 458.782,52.548 458.782,48.598 C458.782,46.08 458.228,43.896 457.138,42.108" id="Fill-11" fill="#7AAC41"></path>
            <path d="M498.898,34.736 L486.506,34.736 L486.506,21.672 C486.506,20.732 485.746,19.97 484.806,19.97 L483.196,19.97 C482.256,19.97 481.496,20.732 481.496,21.672 L481.496,34.736 L469.66,34.736 C468.72,34.736 467.962,35.498 467.962,36.436 L467.962,38.018 C467.962,38.958 468.72,39.718 469.66,39.718 L481.496,39.718 L481.496,52.756 C481.496,53.694 482.256,54.456 483.196,54.456 L484.806,54.456 C485.746,54.456 486.506,53.694 486.506,52.756 L486.506,39.718 L498.898,39.718 C499.838,39.718 500.598,38.958 500.598,38.018 L500.598,36.436 C500.598,35.498 499.838,34.736 498.898,34.736" id="Fill-12" fill="#7AAC41"></path>
        </g>
    </g>
</svg>